<?xml version="1.0" encoding="UTF-8"?><svg id="Layer_1" xmlns="http://www.w3.org/2000/svg" xmlns:xlink="http://www.w3.org/1999/xlink" viewBox="0 0 1000 510"><defs><clipPath id="clippath"><rect class="cls-2" y="-.19" width="1000" height="510"></rect></clipPath></defs><g class="cls-1"><rect class="cls-4" y="-.19" width="1000" height="510"></rect><path class="cls-3" d="m50.15,204.18c-2.19,0-3.97-1.78-3.97-3.97s1.78-3.97,3.97-3.97h43.84c2.19,0,3.97,1.78,3.97,3.97s-1.78,3.97-3.97,3.97h-43.84Z"></path><path class="cls-3" d="m50.15,219.27c-2.19,0-3.97-1.78-3.97-3.97s1.78-3.97,3.97-3.97h43.84c2.19,0,3.97,1.78,3.97,3.97s-1.78,3.97-3.97,3.97h-43.84Z"></path><path class="cls-3" d="m211.1,149.2c0,18.23,14.78,33.01,33,33.01,18.23,0,33.01-14.78,33.01-33.01,0-18.22-14.78-33-33.01-33-18.22,0-33,14.78-33,33Z"></path><path class="cls-3" d="m21.21,94.9c0,16.54,13.41,29.95,29.95,29.95v-59.89c-16.54,0-29.95,13.41-29.95,29.94Z"></path><path class="cls-5" d="m92.42,27.81c24.59-.42,44.51-20.34,44.93-44.93,1.61,0,5.3,0,6.92,0-.41,28.85-22.97,51.4-51.85,51.8,0-1.62,0-5.27,0-6.88Z"></path><path class="cls-5" d="m92.42,12.12c15.94-.41,28.83-13.3,29.24-29.24h6.92c-.42,19.76-16.41,35.75-36.16,36.16v-6.92Z"></path><path class="cls-5" d="m167.3,412.57s0,0,0,0c0,17.33-14.1,31.42-31.43,31.42,0,0,0,5.92,0,5.92,20.76,0,37.38-16.03,37.38-37.34,0,0-5.95,0-5.95,0Z"></path><path class="cls-5" d="m156.33,412.57h0c0,11.28-9.18,20.46-20.46,20.46h0v5.95h0c14.56,0,26.4-11.84,26.4-26.4h0s-5.95,0-5.95,0Z"></path><path class="cls-3" d="m37.43,408.46c0,6.29,5.1,11.39,11.39,11.39,6.29,0,11.39-5.1,11.39-11.39,0-6.29-5.1-11.39-11.39-11.39-6.29,0-11.39,5.1-11.39,11.39Z"></path><path class="cls-3" d="m58.41,389.13c0,6.29,5.1,11.39,11.39,11.39,6.29,0,11.39-5.1,11.39-11.39,0-6.29-5.1-11.39-11.39-11.39-6.29,0-11.39,5.1-11.39,11.39Z"></path><path class="cls-3" d="m79.26,369.65c0,6.29,5.1,11.39,11.39,11.39,6.29,0,11.39-5.1,11.39-11.39,0-6.29-5.1-11.39-11.39-11.39-6.29,0-11.39,5.1-11.39,11.39Z"></path><path class="cls-5" d="m150.5,477.68s0,0,0,0c0-17.33,14.1-31.42,31.43-31.42,0,0,0-5.92,0-5.92-20.76,0-37.38,16.03-37.38,37.34,0,0,5.95,0,5.95,0Z"></path><path class="cls-5" d="m171.47,477.68h0c0-11.28,9.18-20.46,20.46-20.46h0v-5.95h0c-14.56,0-26.4,11.84-26.4,26.4h0s5.95,0,5.95,0Z"></path><path class="cls-3" d="m292.81,382.25c-2.19,0-3.97-1.78-3.97-3.97s1.78-3.97,3.97-3.97h43.84c2.19,0,3.97,1.78,3.97,3.97s-1.78,3.97-3.97,3.97h-43.84Z"></path><path class="cls-3" d="m292.81,397.33c-2.19,0-3.97-1.78-3.97-3.97s1.78-3.97,3.97-3.97h43.84c2.19,0,3.97,1.78,3.97,3.97s-1.78,3.97-3.97,3.97h-43.84Z"></path><path class="cls-3" d="m334.62,15.55c0,18.23,14.78,33.01,33,33.01,18.23,0,33.01-14.78,33.01-33.01,0-18.22-14.78-33-33.01-33-18.22,0-33,14.78-33,33Z"></path><path class="cls-3" d="m299.75,275.82c0,16.54,13.41,29.95,29.95,29.95v-59.89c-16.54,0-29.95,13.41-29.95,29.94Z"></path><path class="cls-5" d="m739.79,482.51c-.38-22.29-18.44-40.34-40.72-40.72,0-1.46,0-4.8,0-6.28,26.15.37,46.58,20.82,46.95,47-1.46,0-4.78,0-6.23,0Z"></path><path class="cls-5" d="m725.58,482.51c-.38-14.45-12.06-26.13-26.5-26.51v-6.27c17.91.38,32.4,14.87,32.78,32.78h-6.27Z"></path><path class="cls-5" d="m534.99,312.4s0,0,0,0c0,17.33-14.1,31.42-31.43,31.42,0,0,0,5.92,0,5.92,20.76,0,37.38-16.03,37.38-37.34,0,0-5.95,0-5.95,0Z"></path><path class="cls-5" d="m524.02,312.4h0c0,11.28-9.18,20.46-20.46,20.46h0v5.95h0c14.56,0,26.4-11.84,26.4-26.4h0s-5.95,0-5.95,0Z"></path><path class="cls-3" d="m464.29,116.2c0,5.48,4.44,9.92,9.92,9.92,5.48,0,9.92-4.44,9.92-9.92,0-5.48-4.44-9.92-9.92-9.92-5.48,0-9.92,4.44-9.92,9.92Z"></path><path class="cls-3" d="m435.86,116.2c0,5.48,4.44,9.92,9.92,9.92,5.48,0,9.92-4.44,9.92-9.92,0-5.48-4.44-9.92-9.92-9.92-5.48,0-9.92,4.44-9.92,9.92Z"></path><path class="cls-3" d="m407.44,116.2c0,5.48,4.44,9.92,9.92,9.92,5.48,0,9.92-4.44,9.92-9.92,0-5.48-4.44-9.92-9.92-9.92-5.48,0-9.92,4.44-9.92,9.92Z"></path><path class="cls-5" d="m492.18,273.99s0,0,0,0c17.33,0,31.42,14.1,31.42,31.43,0,0,5.92,0,5.92,0,0-20.76-16.03-37.38-37.34-37.38,0,0,0,5.95,0,5.95Z"></path><path class="cls-5" d="m492.18,284.96h0c11.28,0,20.46,9.18,20.46,20.46h0s5.95,0,5.95,0h0c0-14.56-11.84-26.41-26.4-26.41h0v5.95Z"></path><path class="cls-3" d="m875.02,452.85c0,18.23,14.78,33.01,33,33.01,18.23,0,33.01-14.78,33.01-33.01,0-18.22-14.78-33-33.01-33-18.22,0-33,14.78-33,33Z"></path><path class="cls-5" d="m630.79,33.03s0,0,0,0c-23.76,0-43.1-19.33-43.1-43.1,0,0-8.12,0-8.12,0,0,28.48,21.98,51.26,51.21,51.26,0,0,0-8.16,0-8.16Z"></path><path class="cls-5" d="m630.79,17.98h0c-15.47,0-28.05-12.59-28.05-28.06h0s-8.16,0-8.16,0h0c0,19.97,16.24,36.22,36.21,36.22h0s0-8.16,0-8.16Z"></path><path class="cls-3" d="m634.79,165.79c-2.19,0-3.97-1.78-3.97-3.97s1.78-3.97,3.97-3.97h43.84c2.19,0,3.97,1.78,3.97,3.97s-1.78,3.97-3.97,3.97h-43.84Z"></path><path class="cls-3" d="m634.79,180.88c-2.19,0-3.97-1.78-3.97-3.97s1.78-3.97,3.97-3.97h43.84c2.19,0,3.97,1.78,3.97,3.97s-1.78,3.97-3.97,3.97h-43.84Z"></path><path class="cls-3" d="m660.77,316.03c0-16.54-13.41-29.95-29.95-29.95v59.89c16.54,0,29.95-13.41,29.95-29.94Z"></path><path class="cls-3" d="m544.27,476.91c4.45,4.45,11.66,4.45,16.11,0,4.45-4.45,4.45-11.66,0-16.11-4.45-4.45-11.66-4.45-16.11,0-4.45,4.45-4.45,11.66,0,16.11Z"></path><path class="cls-3" d="m545.43,448.4c4.45,4.45,11.66,4.45,16.11,0,4.45-4.45,4.45-11.66,0-16.11-4.45-4.45-11.66-4.45-16.11,0-4.45,4.45-4.45,11.66,0,16.11Z"></path><path class="cls-3" d="m546.41,419.88c4.45,4.45,11.66,4.45,16.11,0,4.45-4.45,4.45-11.66,0-16.11-4.45-4.45-11.66-4.45-16.11,0-4.45,4.45-4.45,11.66,0,16.11Z"></path><path class="cls-3" d="m974.97,94.91c0-16.54-13.41-29.95-29.95-29.95v59.89c16.54,0,29.95-13.41,29.95-29.94Z"></path><path class="cls-3" d="m168.96,268.05c-1.55-1.55-1.55-4.06,0-5.61s4.06-1.55,5.61,0l31,31c1.55,1.55,1.55,4.06,0,5.61s-4.06,1.55-5.61,0l-31-31Z"></path><path class="cls-3" d="m158.3,278.72c-1.55-1.55-1.55-4.06,0-5.61s4.06-1.55,5.61,0l31,31c1.55,1.55,1.55,4.06,0,5.61s-4.06,1.55-5.61,0l-31-31Z"></path><path class="cls-3" d="m771.24,328.99c-1.55,1.55-4.06,1.55-5.61,0s-1.55-4.06,0-5.61l31-31c1.55-1.55,4.06-1.55,5.61,0s1.55,4.06,0,5.61l-31,31Z"></path><path class="cls-3" d="m781.91,339.66c-1.55,1.55-4.06,1.55-5.61,0s-1.55-4.06,0-5.61l31-31c1.55-1.55,4.06-1.55,5.61,0s1.55,4.06,0,5.61l-31,31Z"></path><path class="cls-3" d="m667.62,316.02c0,16.54,13.41,29.95,29.95,29.95v-59.89c-16.54,0-29.95,13.41-29.95,29.94Z"></path><path class="cls-5" d="m743.89,21.95s0,0,0,0c17.33,0,31.42,14.1,31.42,31.43,0,0,5.92,0,5.92,0,0-20.76-16.03-37.38-37.34-37.38,0,0,0,5.95,0,5.95Z"></path><path class="cls-5" d="m743.89,32.92h0c11.28,0,20.46,9.18,20.46,20.46h0s5.95,0,5.95,0h0c0-14.56-11.84-26.41-26.4-26.41h0v5.95Z"></path><path class="cls-5" d="m748.76,56.91s0,0,0,0c0,17.33-14.1,31.42-31.43,31.42,0,0,0,5.92,0,5.92,20.76,0,37.38-16.03,37.38-37.34,0,0-5.95,0-5.95,0Z"></path><path class="cls-5" d="m737.79,56.91h0c0,11.28-9.18,20.46-20.46,20.46h0v5.95h0c14.56,0,26.4-11.84,26.4-26.4h0s-5.95,0-5.95,0Z"></path><path class="cls-3" d="m931.9,335.47c4.45,4.45,11.66,4.45,16.11,0,4.45-4.45,4.45-11.66,0-16.11-4.45-4.45-11.66-4.45-16.11,0-4.45,4.45-4.45,11.66,0,16.11Z"></path><path class="cls-3" d="m933.06,306.97c4.45,4.45,11.66,4.45,16.11,0,4.45-4.45,4.45-11.66,0-16.11-4.45-4.45-11.66-4.45-16.11,0-4.45,4.45-4.45,11.66,0,16.11Z"></path><path class="cls-3" d="m934.04,278.45c4.45,4.45,11.66,4.45,16.11,0,4.45-4.45,4.45-11.66,0-16.11-4.45-4.45-11.66-4.45-16.11,0-4.45,4.45-4.45,11.66,0,16.11Z"></path><path class="cls-3" d="m399.33,224.3c-1.55,1.55-4.06,1.55-5.61,0s-1.55-4.06,0-5.61l31-31c1.55-1.55,4.06-1.55,5.61,0s1.55,4.06,0,5.61l-31,31Z"></path><path class="cls-3" d="m410,234.97c-1.55,1.55-4.06,1.55-5.61,0s-1.55-4.06,0-5.61l31-31c1.55-1.55,4.06-1.55,5.61,0s1.55,4.06,0,5.61l-31,31Z"></path><path class="cls-5" d="m806.91,219.27c-17.52,0-31.77-14.26-31.77-31.78s14.25-31.77,31.77-31.77,31.78,14.25,31.78,31.77-14.26,31.78-31.78,31.78Zm0-56.39c-13.57,0-24.62,11.04-24.62,24.62s11.04,24.62,24.62,24.62,24.62-11.05,24.62-24.62-11.05-24.62-24.62-24.62Z"></path><path class="cls-5" d="m417.36,428.85c-17.52,0-31.77-14.26-31.77-31.78s14.25-31.77,31.77-31.77,31.78,14.25,31.78,31.77-14.26,31.78-31.78,31.78Zm0-56.39c-13.57,0-24.62,11.04-24.62,24.62s11.04,24.62,24.62,24.62,24.62-11.05,24.62-24.62-11.05-24.62-24.62-24.62Z"></path><path class="cls-3" d="m860.22,61.39c-2.19,0-3.97-1.78-3.97-3.97s1.78-3.97,3.97-3.97h43.84c2.19,0,3.97,1.78,3.97,3.97s-1.78,3.97-3.97,3.97h-43.84Z"></path><path class="cls-3" d="m860.22,76.32c-2.19,0-3.97-1.78-3.97-3.97s1.78-3.97,3.97-3.97h43.84c2.19,0,3.97,1.78,3.97,3.97s-1.78,3.97-3.97,3.97h-43.84Z"></path><path class="cls-3" d="m860.22,91.25c-2.19,0-3.97-1.78-3.97-3.97s1.78-3.97,3.97-3.97h43.84c2.19,0,3.97,1.78,3.97,3.97s-1.78,3.97-3.97,3.97h-43.84Z"></path></g></svg>