<?xml version="1.0" encoding="UTF-8"?>
<svg id="Layer_1" data-name="Layer 1" xmlns="http://www.w3.org/2000/svg" xmlns:xlink="http://www.w3.org/1999/xlink" viewBox="0 0 1110 230">
  <defs>
    
    <linearGradient id="linear-gradient" x1="-949.02" y1="-896.5" x2="758.29" y2="-275.09" gradientTransform="translate(-403.15 582.83) rotate(-20)" gradientUnits="userSpaceOnUse">
      <stop offset="0" stop-color="#acd037"></stop>
      <stop offset=".25" stop-color="#87c547"></stop>
      <stop offset=".5" stop-color="#5dac6b"></stop>
      <stop offset=".75" stop-color="#48b090"></stop>
      <stop offset="1" stop-color="#11a8ce"></stop>
    </linearGradient>
    <linearGradient id="Gradient_Swatch" data-name="Gradient Swatch" x1="590.42" y1="-12.46" x2="600.08" y2="-377.94" gradientTransform="translate(-403.15 582.83) rotate(-20)" gradientUnits="userSpaceOnUse">
      <stop offset="0" stop-color="#acd037"></stop>
      <stop offset=".25" stop-color="#87c547"></stop>
      <stop offset=".5" stop-color="#5dac6b"></stop>
      <stop offset=".75" stop-color="#48b090"></stop>
      <stop offset="1" stop-color="#11a8ce"></stop>
    </linearGradient>
    <linearGradient id="Gradient_Swatch-2" data-name="Gradient Swatch" x1="665.85" y1="-10.46" x2="675.51" y2="-375.95" xlink:href="#Gradient_Swatch"></linearGradient>
    <linearGradient id="Gradient_Swatch-3" data-name="Gradient Swatch" x1="615.62" y1="-4.85" x2="625.28" y2="-370.33" xlink:href="#Gradient_Swatch"></linearGradient>
    <linearGradient id="Gradient_Swatch-4" data-name="Gradient Swatch" x1="615.08" y1="3.79" x2="624.74" y2="-361.69" xlink:href="#Gradient_Swatch"></linearGradient>
    <linearGradient id="Gradient_Swatch-5" data-name="Gradient Swatch" x1="564.3" y1="18.05" x2="573.96" y2="-347.43" xlink:href="#Gradient_Swatch"></linearGradient>
    <linearGradient id="Gradient_Swatch-6" data-name="Gradient Swatch" x1="639.73" y1="20.04" x2="649.39" y2="-345.44" xlink:href="#Gradient_Swatch"></linearGradient>
  </defs>
  <g>
    <path class="cls-1" d="M16.09,98.82c2.59-.7,4.75-2.13,6.35-3.99,6.86-7.96,15.43-14.27,25.31-17.87l50.07-18.23c9.9-3.6,20.55-4.28,30.95-2.58,2.43.4,5.01.1,7.45-1.03,5.68-2.62,8.65-9.11,6.92-15.13-2.07-7.21-9.77-11.04-16.7-8.52-2.23.81-4.09,2.17-5.5,3.88-6.86,8.33-16.08,14.39-26.22,18.08l-48.03,17.49c-10.11,3.68-21.03,4.96-31.61,3-2.17-.4-4.46-.25-6.68.56-6.91,2.52-10.33,10.37-7.29,17.21,2.53,5.7,8.96,8.76,14.98,7.13Z"></path>
    <g>
      <path class="cls-2" d="M113.8,181.27l-22.27,8.11c-7.52,2.74-15.53,3.67-23.53,3.35-1.18-.05-2.4.15-3.57.63-4.04,1.65-6.22,6.21-4.95,10.39,1.44,4.73,6.53,7.23,11.11,5.56,1.15-.42,2.15-1.05,2.98-1.85,6.07-5.8,13.47-10.03,21.36-12.9l21.05-7.66c1.6-.58,2.4-2.37,1.77-3.96-.61-1.54-2.4-2.24-3.96-1.67Z"></path>
      <path class="cls-6" d="M156.74,159.83c-4.42,1.61-6.7,6.5-5.09,10.91,1.61,4.42,6.5,6.7,10.92,5.09,4.42-1.61,6.7-6.5,5.09-10.92-1.61-4.42-6.5-6.7-10.92-5.09Z"></path>
    </g>
    <path class="cls-7" d="M154.91,111.05c-2.59.7-4.75,2.13-6.35,3.99-6.86,7.96-15.43,14.27-25.31,17.87l-50.08,18.23c-9.9,3.6-20.55,4.28-30.95,2.58-2.43-.4-5.01-.1-7.45,1.03-5.68,2.62-8.65,9.11-6.92,15.13,2.07,7.21,9.77,11.04,16.7,8.52,2.23-.81,4.09-2.17,5.5-3.88,6.86-8.33,16.08-14.39,26.22-18.08l48.03-17.49c10.11-3.68,21.03-4.96,31.61-3,2.17.4,4.46.25,6.68-.56,6.91-2.52,10.33-10.37,7.29-17.21-2.53-5.7-8.96-8.76-14.98-7.13Z"></path>
    <path class="cls-4" d="M145.24,68.31c-3.09.86-5.62,2.65-7.4,4.97-6.85,8.88-16.32,15.38-26.87,19.2l-52.95,19.2c-10.57,3.83-22.03,4.93-33.01,2.53-2.86-.63-5.95-.37-8.86.95-6.29,2.86-9.6,10.03-7.69,16.67,2.28,7.93,10.74,12.15,18.36,9.37,2.57-.94,4.71-2.55,6.28-4.56,7.01-8.98,16.65-15.55,27.35-19.43l52.07-18.88c10.73-3.89,22.37-5.05,33.53-2.67,2.49.53,5.16.39,7.74-.54,7.62-2.77,11.39-11.44,8.04-18.98-2.81-6.32-9.95-9.69-16.61-7.83Z"></path>
    <g>
      <path class="cls-5" d="M14.26,50.03c4.42-1.61,6.7-6.5,5.09-10.91-1.61-4.42-6.5-6.7-10.92-5.09-4.42,1.61-6.7,6.5-5.09,10.92,1.61,4.42,6.5,6.7,10.92,5.09Z"></path>
      <path class="cls-3" d="M57.2,28.59l22.26-8.1c7.53-2.74,15.53-3.67,23.53-3.35,1.18.05,2.4-.15,3.57-.63,4.04-1.65,6.22-6.21,4.95-10.39-1.44-4.73-6.53-7.23-11.11-5.56-1.15.42-2.15,1.05-2.98,1.85-6.07,5.8-13.47,10.03-21.36,12.9l-21.05,7.66c-1.6.58-2.4,2.37-1.77,3.96.61,1.54,2.4,2.24,3.96,1.67Z"></path>
    </g>
  </g>
  <g>
    <path class="cls-8" d="M238.98,23.24c3.75-7.49,8.94-13.22,15.59-17.19,6.64-3.97,14.29-5.95,22.94-5.95,7.94,0,14.54,1.32,19.8,3.95,5.26,2.63,9.43,6.35,12.51,11.17,3.08,4.82,5.24,10.52,6.49,17.12l-17.53,2.41c-1.43-6.06-3.73-10.79-6.89-14.18-3.17-3.39-8.05-5.08-14.65-5.08-8.12,0-14.34,3.12-18.66,9.36-4.33,6.24-6.49,14.67-6.49,25.28s2.18,19.31,6.56,25.55c4.37,6.24,10.66,9.36,18.86,9.36,7.22,0,12.49-1.85,15.79-5.55,3.3-3.7,5.4-8.54,6.29-14.52h18.19c-.62,6.96-2.56,13.11-5.82,18.46-3.26,5.35-7.76,9.52-13.51,12.51s-12.82,4.48-21.2,4.48c-9.1,0-16.92-1.96-23.48-5.89-6.56-3.92-11.59-9.59-15.12-16.99-3.52-7.4-5.28-16.37-5.28-26.89s1.87-19.93,5.62-27.42Z"></path>
    <path class="cls-8" d="M332.63,2.5h17.93v38.13h41.2V2.5h17.93v95.52h-17.93v-41.2h-41.2v41.2h-17.93V2.5Z"></path>
    <path class="cls-8" d="M456.64,2.5h20.47l35.05,95.52h-18.6l-8.29-23.14h-37.73l-8.16,23.14h-18.06L456.64,2.5ZM480.72,60.16l-14.31-41.07-14.18,41.07h28.5Z"></path>
    <path class="cls-8" d="M523.8,2.5h17.93v79.87h46.56l-2.14,15.65h-62.34V2.5Z"></path>
    <path class="cls-8" d="M600.85,2.5h17.93v79.87h46.56l-2.14,15.65h-62.34V2.5Z"></path>
    <path class="cls-8" d="M677.91,2.5h64.62v14.72h-46.96v24.48h44.28v14.85h-44.28v26.76h49.63l-2.14,14.72h-65.15V2.5Z"></path>
    <path class="cls-8" d="M759.12,2.5h16.46l43.08,67.56V2.5h16.86v95.52h-16.05l-43.35-67.16v67.16h-16.99V2.5Z"></path>
    <path class="cls-8" d="M936.11,87.32c-4.91,4.28-10.79,7.54-17.66,9.77-6.87,2.23-13.74,3.34-20.6,3.34-14.63,0-25.91-4.39-33.85-13.18-7.94-8.78-11.91-21.02-11.91-36.72,0-9.99,1.72-18.77,5.15-26.36,3.43-7.58,8.47-13.49,15.12-17.73,6.64-4.24,14.69-6.35,24.15-6.35,11.15,0,19.82,2.61,26.02,7.83,6.2,5.22,10.19,12.24,11.97,21.07l-17.53,2.14c-1.25-4.9-3.39-8.78-6.42-11.64-3.03-2.85-7.76-4.28-14.18-4.28-6.07,0-10.99,1.52-14.78,4.55-3.79,3.03-6.58,7.16-8.36,12.37-1.78,5.22-2.68,11.22-2.68,17.99,0,10.97,2.25,19.56,6.76,25.75,4.5,6.2,11.53,9.3,21.07,9.3,4.01,0,7.8-.45,11.37-1.34,3.57-.89,6.78-2.27,9.63-4.15v-18.33h-20.6v-14.58h37.33v40.54Z"></path>
    <path class="cls-8" d="M953.23,2.5h64.62v14.72h-46.96v24.48h44.28v14.85h-44.28v26.76h49.63l-2.14,14.72h-65.15V2.5Z"></path>
    <path class="cls-8" d="M1034.43,2.5h34.25c9.27,0,16.54,1.29,21.81,3.88,5.26,2.59,9.01,6.02,11.24,10.3,2.23,4.28,3.34,9.01,3.34,14.18,0,6.07-1.27,11.3-3.81,15.72-2.54,4.41-6.53,7.92-11.97,10.5l20.07,40.94h-19l-17.26-37.06c-.89.09-1.81.16-2.74.2-.94.05-1.81.07-2.61.07h-16.05v36.79h-17.26V2.5ZM1068.82,47.05c7.31,0,12.26-1.38,14.85-4.15,2.59-2.76,3.88-6.6,3.88-11.51s-1.38-8.36-4.15-10.9c-2.77-2.54-7.98-3.81-15.65-3.81h-16.05v30.37h17.12Z"></path>
    <path class="cls-8" d="M299.51,221.81c-6.29,5.44-15.59,8.16-27.89,8.16s-21.32-2.5-28.36-7.49c-7.05-4.99-11.02-12.8-11.91-23.41h17.79c.89,5.71,3.16,9.88,6.82,12.51,3.66,2.63,9.05,3.95,16.19,3.95s11.79-1.36,14.52-4.08c2.72-2.72,4.08-6.09,4.08-10.1,0-3.12-.96-5.89-2.88-8.29-1.92-2.41-5.87-4.15-11.84-5.22l-12.31-2.27c-9.9-1.78-17.41-4.75-22.54-8.9-5.13-4.15-7.69-10.55-7.69-19.2,0-6.15,1.58-11.28,4.75-15.39,3.16-4.1,7.51-7.2,13.04-9.3,5.53-2.09,11.91-3.14,19.13-3.14,8.29,0,15,1.18,20.13,3.54,5.13,2.36,9.01,5.51,11.64,9.43,2.63,3.93,4.35,8.34,5.15,13.24l-16.99,2.41c-1.25-4.82-3.3-8.41-6.15-10.77-2.86-2.36-7.49-3.55-13.91-3.55-7.05,0-12,1.2-14.85,3.61-2.86,2.41-4.28,5.44-4.28,9.1s1.07,6.6,3.21,8.56c2.14,1.96,6.02,3.43,11.64,4.41l13.24,2.54c10.34,1.96,17.88,5.17,22.61,9.63,4.73,4.46,7.09,10.84,7.09,19.13s-3.14,15.43-9.43,20.87Z"></path>
    <path class="cls-8" d="M341.45,189.43c0,8.38,1.58,14.67,4.75,18.86,3.16,4.19,8.27,6.29,15.32,6.29s12.49-2.09,15.52-6.29c3.03-4.19,4.55-10.48,4.55-18.86v-57.39h17.79v56.99c0,14.09-3.3,24.44-9.9,31.04-6.6,6.6-15.97,9.9-28.09,9.9s-21.58-3.32-28.09-9.97c-6.51-6.64-9.77-17.1-9.77-31.37v-56.59h17.93v57.39Z"></path>
    <path class="cls-8" d="M417.98,132.04h21.27l26.76,74.52,27.16-74.52h20.74v95.52h-16.32v-68.5l-25.15,68.5h-13.51l-24.75-67.96v67.96h-16.19v-95.52Z"></path>
    <path class="cls-8" d="M533.43,132.04h21.27l26.76,74.52,27.16-74.52h20.74v95.52h-16.32v-68.5l-25.15,68.5h-13.51l-24.75-67.96v67.96h-16.19v-95.52Z"></path>
    <path class="cls-8" d="M648.88,132.04h17.93v95.52h-17.93v-95.52Z"></path>
    <path class="cls-8" d="M709.35,147.69h-30.1v-15.65h78.13v15.65h-30.23v79.87h-17.79v-79.87Z"></path>
  </g>
</svg>