<svg xmlns="http://www.w3.org/2000/svg" viewBox="0 0 300 180" fill="currentColor"><path d="M22.72,102.02c-.33.78-.86,1.95-.97,2.23-.22.39-.67.81-1.67.81h-6.82v-28.99c.06-.47.42-.86.95-.86h7.96l-1.03,2.23c-.17.39-.64.86-1.62.86h-2.48c-.42,0-.72.31-.72.72v8.86h4.6c-.33.78-.86,2.01-.97,2.26-.22.39-.64.81-1.62.81h-1.28c-.39,0-.72.33-.72.72v10.36h6.41Z"></path><path d="M47.2,105.06h-1.42c-1.67,0-1.92-1.31-2.03-1.92l-3.29-14.76v16.68h-3.06v-29.85h1.42c1.7,0,2.01.81,2.17,1.67l3.15,15.51v-17.18h3.06v29.85Z"></path><path d="M68.95,75.21c2.09,0,3.76,1.67,3.79,3.76v22.33c-.06,2.09-1.7,3.76-3.79,3.76h-5.93v-29.85h5.93ZM69.7,79.83c0-1.11-.78-1.53-1.62-1.53h-2.01v23.75h2.01c.86,0,1.62-.42,1.62-1.59v-20.64h0Z"></path><path d="M94.68,74.93c2.03.08,3.7,1.75,3.7,3.79v22.89c-.06,2.03-1.67,3.68-3.7,3.76h-2.34c-2.09,0-3.79-1.7-3.84-3.76v-22.89c0-2.09,1.7-3.79,3.84-3.79,0,0,2.34,0,2.34,0ZM93.68,102.66c.89,0,1.62-.72,1.62-1.67v-21.75c0-.95-.72-1.67-1.62-1.67h-.47c-.89.06-1.62.78-1.62,1.67v21.78c0,.89.72,1.62,1.62,1.67h.47v-.03Z"></path><path d="M188.61,105.06h-3.37l-2.67-20.55-2.67,20.55h-3.37l4.51-29.85h1.67c1.28,0,1.5.81,1.62,1.62l4.29,28.24h0Z"></path><path d="M204.35,105.06h-3.54l4.73-15.82-4.01-14.04h2.39c.14,0,.89,0,1.2,1.03l2.17,7.94,2.03-7.94c.31-1.03,1.06-1.03,1.2-1.03h2.39l-3.84,14.06,4.43,15.79h-3.31l-2.78-10.83-3.06,10.83h0Z"></path><path d="M230.91,75.21c.89,0,1.23.67,1.23,1.2v28.66h-2.17c-.72,0-.86-.42-.89-.64v-29.21h1.84Z"></path><path d="M255.28,74.93c2.03.08,3.7,1.75,3.7,3.79v22.89c-.06,2.03-1.67,3.68-3.7,3.76h-2.34c-2.09,0-3.79-1.7-3.84-3.76v-22.89c0-2.09,1.7-3.79,3.84-3.79,0,0,2.34,0,2.34,0ZM254.28,102.66c.89,0,1.62-.72,1.62-1.67v-21.75c0-.95-.72-1.67-1.62-1.67h-.47c-.89.06-1.62.78-1.62,1.67v21.78c0,.89.72,1.62,1.62,1.67h.47v-.03Z"></path><path d="M286.75,105.06h-3.04v-15.4l-2.31,10.22h-.95c-1.78,0-2.14-1.78-2.31-2.42l-1.78-7.8v15.4h-3.04v-29.85h1.87c1.2,0,1.36,1.11,1.36,1.11l3.54,17.15,3.37-17.18c.06-.14.25-1.06,1.36-1.06h1.87v29.83h.06Z"></path><path d="M145.22,113.92c-16.4,5.96-34.37-7.88-31.97-25.4.84-6.49,4.37-12.5,9.61-16.4,2.59-1.92,5.57-3.29,8.66-4.04.08-.03.19.03.22.14.03.08-.03.19-.11.22-3.01.92-5.79,2.45-8.19,4.4-4.76,3.93-7.88,9.75-8.35,15.87-1.09,12.87,7.77,24.4,20.8,25.73,3.09.36,6.27.06,9.27-.84.08-.03.17.03.19.11-.03.08-.06.17-.14.19Z"></path><path d="M161.57,91.11c-2.12,0-3.84,1.73-3.84,3.84s1.73,3.84,3.84,3.84,3.84-1.73,3.84-3.84-1.73-3.84-3.84-3.84Z"></path><path d="M147.9,91.19c0,5.63-4.54,10.16-10.16,10.16s-10.16-4.54-10.16-10.16,4.54-10.16,10.16-10.16c5.63,0,10.16,4.54,10.16,10.16Z"></path><path d="M159.34,74.98c-2.95,0-5.37,2.42-5.37,5.37s2.42,5.37,5.37,5.37,5.37-2.42,5.37-5.37-2.39-5.37-5.37-5.37Z"></path><path d="M148.26,65.82c-2.14,0-3.87,1.73-3.87,3.87s1.73,3.87,3.87,3.87,3.87-1.73,3.87-3.87-1.73-3.87-3.87-3.87Z"></path><path d="M139.46,67.05c0,1.31-1.06,2.37-2.37,2.37s-2.37-1.06-2.37-2.37,1.06-2.37,2.37-2.37,2.37,1.06,2.37,2.37Z"></path><path d="M156.75,103.86c-1.31,0-2.37,1.06-2.37,2.37s1.06,2.37,2.37,2.37,2.37-1.06,2.37-2.37-1.06-2.37-2.37-2.37Z"></path><path d="M149.32,110.71c-.92-.06-1.73.67-1.78,1.59s.67,1.73,1.59,1.78c.47.03.89-.14,1.23-.42.33-.31.53-.72.56-1.17s-.14-.89-.42-1.23c-.31-.33-.72-.53-1.17-.56h0Z"></path></svg>