<svg id="a" xmlns="http://www.w3.org/2000/svg" viewBox="0 0 300 180" fill="currentColor"><path d="M42.07,74.97c2.02.08,3.66,1.73,3.66,3.75v22.6c-.04,2.02-1.64,3.62-3.66,3.7h-2.31c-2.06,0-3.75-1.68-3.79-3.7v-22.6c0-2.06,1.68-3.75,3.79-3.75h2.31ZM41.06,102.38c.88,0,1.6-.72,1.6-1.64v-21.47c0-.93-.72-1.64-1.6-1.64h-.46c-.88.04-1.6.76-1.6,1.64v21.47c0,.88.72,1.6,1.6,1.64h.46Z"></path><path d="M71.1,104.73h-1.39c-1.64,0-1.89-1.3-2.02-1.89l-3.24-14.56v16.46h-3.03v-29.47h1.39c1.68,0,1.98.8,2.15,1.64l3.11,15.32v-16.96h3.03v29.47Z"></path><path d="M92.79,92.48v12.25h-2.15c-.46,0-.84-.38-.88-.88v-11.37l-3.62-17.22h2.23c.08,0,.84.04.97,1.01l1.94,11.15,1.94-11.15c.13-.97.88-1.01.97-1.01h2.23l-3.62,17.22Z"></path><path d="M113.89,104.73h-3.49l4.67-15.62-3.96-13.85h2.36c.13,0,.88,0,1.18,1.01l2.15,7.83,2.02-7.83c.29-1.01,1.05-1.01,1.18-1.01h2.36l-3.79,13.89,4.38,15.58h-3.28l-2.74-10.69-3.03,10.69Z"></path><path d="M164.55,104.73h-3.33l-2.65-20.29-2.65,20.29h-3.33l4.46-29.47h1.64c1.26,0,1.47.8,1.6,1.6l4.25,27.87Z"></path><path d="M182.06,104.73h-3.49l4.67-15.62-3.96-13.85h2.36c.13,0,.88,0,1.18,1.01l2.15,7.83,2.02-7.83c.3-1.01,1.05-1.01,1.18-1.01h2.36l-3.79,13.89,4.38,15.58h-3.28l-2.74-10.69-3.03,10.69Z"></path><path d="M208.53,75.27c.88,0,1.22.67,1.22,1.18v28.29h-2.15c-.72,0-.84-.42-.88-.63v-28.84h1.81Z"></path><path d="M232.12,74.97c2.02.08,3.66,1.73,3.66,3.75v22.6c-.04,2.02-1.64,3.62-3.66,3.7h-2.31c-2.06,0-3.75-1.68-3.79-3.7v-22.6c0-2.06,1.68-3.75,3.79-3.75h2.31ZM231.11,102.38c.88,0,1.6-.72,1.6-1.64v-21.47c0-.93-.72-1.64-1.6-1.64h-.46c-.88.04-1.6.76-1.6,1.64v21.47c0,.88.72,1.6,1.6,1.64h.46Z"></path><path d="M264.03,104.73h-2.99v-15.2l-2.27,10.1h-.93c-1.77,0-2.1-1.77-2.27-2.4l-1.77-7.7v15.2h-2.99v-29.47h1.85c1.18,0,1.35,1.09,1.35,1.09l3.49,16.92,3.33-16.96c.04-.13.25-1.05,1.35-1.05h1.85v29.47Z"></path></svg>