<?xml version="1.0" encoding="UTF-8"?><svg id="a" xmlns="http://www.w3.org/2000/svg" viewBox="0 0 136 241"><path d="M67.48,35.24c5.65,0,10.24,4.59,10.24,10.24,0,5.65-4.59,10.24-10.24,10.24-5.66,0-10.24-4.59-10.24-10.24,0-5.66,4.59-10.24,10.24-10.24Z" style="fill:#fff; fill-rule:evenodd;"></path><path d="M112.59.42c-5.66,0-10.24,4.59-10.24,10.24,0,5.66,4.59,10.24,10.24,10.24,5.65,0,10.24-4.59,10.24-10.24,0-5.66-4.59-10.24-10.24-10.24Z" style="fill:#fff; fill-rule:evenodd;"></path><path d="M91.42,18.68c-5.66,0-10.24,4.59-10.24,10.24,0,5.66,4.59,10.24,10.24,10.24,5.65,0,10.24-4.59,10.24-10.24,0-5.65-4.59-10.24-10.24-10.24Z" style="fill:#fff; fill-rule:evenodd;"></path><path d="M58,61.17h-2.23c-1.1-4.47-5.11-7.81-9.92-7.81-5.66,0-10.24,4.59-10.24,10.24s4.59,10.24,10.24,10.24c4.82,0,8.83-3.34,9.92-7.81h2.23c1.33,0,2.43-1.09,2.43-2.43s-1.09-2.43-2.43-2.43Z" style="fill:#fff; fill-rule:evenodd;"></path><path d="M58,79.99h-22.92c-1.1-4.48-5.11-7.81-9.92-7.81-5.66,0-10.24,4.59-10.24,10.24s4.59,10.24,10.24,10.24c4.81,0,8.82-3.34,9.92-7.81h22.92c1.33,0,2.43-1.09,2.43-2.43s-1.09-2.43-2.43-2.43Z" style="fill:#fff; fill-rule:evenodd;"></path><path d="M58,103.68H20.56c-1.1-4.47-5.11-7.81-9.92-7.81-5.66,0-10.24,4.59-10.24,10.24s4.59,10.24,10.24,10.24c4.81,0,8.82-3.33,9.92-7.81h37.44c1.33,0,2.43-1.1,2.43-2.44s-1.09-2.43-2.43-2.43Z" style="fill:#fff; fill-rule:evenodd;"></path><path d="M58,131.19H20.57c-1.1-4.48-5.11-7.81-9.92-7.81-5.66,0-10.24,4.59-10.24,10.24s4.59,10.24,10.24,10.24c4.81,0,8.82-3.34,9.92-7.81h37.44c1.34,0,2.43-1.09,2.43-2.43s-1.1-2.43-2.43-2.43Z" style="fill:#fff; fill-rule:evenodd;"></path><path d="M58,154.88h-22.92c-1.1-4.48-5.11-7.81-9.92-7.81-5.66,0-10.24,4.59-10.24,10.24s4.59,10.24,10.24,10.24c4.81,0,8.82-3.34,9.92-7.81h22.92c1.34,0,2.43-1.09,2.43-2.43s-1.1-2.43-2.43-2.43Z" style="fill:#fff; fill-rule:evenodd;"></path><path d="M58,173.7h-2.23c-1.1-4.47-5.11-7.81-9.92-7.81-5.66,0-10.24,4.59-10.24,10.24s4.59,10.24,10.24,10.24c4.81,0,8.82-3.33,9.92-7.81h2.23c1.34,0,2.43-1.1,2.43-2.43s-1.1-2.43-2.43-2.43Z" style="fill:#fff; fill-rule:evenodd;"></path><path d="M91.42,201.83c-5.66,0-10.24,4.59-10.24,10.24,0,5.65,4.59,10.24,10.24,10.24,5.65,0,10.24-4.59,10.24-10.24,0-5.65-4.59-10.24-10.24-10.24Z" style="fill:#fff; fill-rule:evenodd;"></path><path d="M112.59,220.09c-5.66,0-10.24,4.59-10.24,10.24,0,5.66,4.59,10.24,10.24,10.24,5.65,0,10.24-4.59,10.24-10.24,0-5.66-4.59-10.24-10.24-10.24Z" style="fill:#fff; fill-rule:evenodd;"></path><path d="M23.41.42c5.65,0,10.24,4.59,10.24,10.24,0,5.66-4.59,10.24-10.24,10.24-5.66,0-10.24-4.59-10.24-10.24,0-5.66,4.59-10.24,10.24-10.24Z" style="fill:#fff; fill-rule:evenodd;"></path><path d="M44.59,18.68c5.65,0,10.24,4.59,10.24,10.24,0,5.66-4.59,10.24-10.24,10.24-5.66,0-10.24-4.59-10.24-10.24,0-5.66,4.59-10.24,10.24-10.24Z" style="fill:#fff; fill-rule:evenodd;"></path><path d="M90.15,53.36c-4.81,0-8.82,3.33-9.92,7.81h-3.44c-1.34,0-2.43,1.09-2.43,2.43s1.1,2.43,2.43,2.43h3.44c1.1,4.47,5.11,7.81,9.92,7.81,5.66,0,10.24-4.59,10.24-10.24s-4.59-10.24-10.24-10.24Z" style="fill:#fff; fill-rule:evenodd;"></path><path d="M110.84,72.18c-4.81,0-8.82,3.33-9.92,7.81h-24.13c-1.34,0-2.43,1.1-2.43,2.43s1.1,2.43,2.43,2.43h24.13c1.1,4.47,5.11,7.81,9.92,7.81,5.65,0,10.24-4.59,10.24-10.24s-4.59-10.24-10.24-10.24Z" style="fill:#fff; fill-rule:evenodd;"></path><path d="M125.36,95.87c-4.81,0-8.82,3.34-9.92,7.81h-38.65c-1.34,0-2.43,1.1-2.43,2.43s1.1,2.44,2.43,2.44h38.65c1.1,4.47,5.11,7.81,9.92,7.81,5.66,0,10.24-4.59,10.24-10.24s-4.59-10.24-10.24-10.24Z" style="fill:#fff; fill-rule:evenodd;"></path><path d="M125.36,123.38c-4.81,0-8.82,3.34-9.92,7.81h-38.65c-1.34,0-2.43,1.09-2.43,2.43s1.09,2.43,2.43,2.43h38.65c1.1,4.47,5.11,7.81,9.92,7.81,5.65,0,10.24-4.59,10.24-10.24s-4.59-10.24-10.24-10.24Z" style="fill:#fff; fill-rule:evenodd;"></path><path d="M110.84,147.07c-4.81,0-8.83,3.34-9.92,7.81h-24.13c-1.34,0-2.43,1.09-2.43,2.43s1.09,2.43,2.43,2.43h24.13c1.1,4.48,5.11,7.81,9.92,7.81,5.65,0,10.24-4.59,10.24-10.24s-4.59-10.24-10.24-10.24Z" style="fill:#fff; fill-rule:evenodd;"></path><path d="M90.15,165.89c-4.81,0-8.82,3.33-9.92,7.81h-3.44c-1.34,0-2.43,1.1-2.43,2.43s1.09,2.43,2.43,2.43h3.44c1.1,4.47,5.11,7.81,9.92,7.81,5.66,0,10.24-4.59,10.24-10.24s-4.59-10.24-10.24-10.24Z" style="fill:#fff; fill-rule:evenodd;"></path><circle cx="44.59" cy="212.07" r="10.24" style="fill:#fff;"></circle><circle cx="23.41" cy="230.33" r="10.24" style="fill:#fff;"></circle><path d="M68.52,185.7c-5.65,0-10.24,4.59-10.24,10.25,0,5.65,4.59,10.24,10.24,10.24,5.66,0,10.24-4.59,10.24-10.24,0-5.66-4.59-10.25-10.24-10.25Z" style="fill:#fff; fill-rule:evenodd;"></path><path d="M67.48,109.57c1.9,0,3.46-1.55,3.46-3.46,0-1.9-1.55-3.45-3.46-3.45-1.9,0-3.46,1.55-3.46,3.45,0,1.91,1.55,3.46,3.46,3.46Z" style="fill:#fff; fill-rule:evenodd;"></path><path d="M67.48,137.08c1.9,0,3.46-1.55,3.46-3.46,0-1.9-1.55-3.46-3.46-3.46-1.9,0-3.46,1.55-3.46,3.46,0,1.9,1.55,3.46,3.46,3.46Z" style="fill:#fff; fill-rule:evenodd;"></path><path d="M67.48,85.88c1.9,0,3.46-1.55,3.46-3.46,0-1.9-1.55-3.46-3.46-3.46-1.9,0-3.46,1.55-3.46,3.46s1.55,3.46,3.46,3.46Z" style="fill:#fff; fill-rule:evenodd;"></path><path d="M67.48,160.77c1.9,0,3.46-1.55,3.46-3.46,0-1.91-1.55-3.46-3.46-3.46-1.9,0-3.46,1.55-3.46,3.46,0,1.9,1.55,3.46,3.46,3.46Z" style="fill:#fff; fill-rule:evenodd;"></path><path d="M67.48,67.06c1.9,0,3.46-1.55,3.46-3.46,0-1.91-1.55-3.46-3.46-3.46-1.9,0-3.46,1.55-3.46,3.46,0,1.9,1.55,3.46,3.46,3.46Z" style="fill:#fff; fill-rule:evenodd;"></path><path d="M67.48,179.59c1.9,0,3.46-1.55,3.46-3.46,0-1.91-1.55-3.46-3.46-3.46-1.9,0-3.46,1.55-3.46,3.46,0,1.91,1.55,3.46,3.46,3.46Z" style="fill:#fff; fill-rule:evenodd;"></path></svg>