<?xml version="1.0" encoding="UTF-8"?>
<svg id="Calque_5" data-name="Calque 5" xmlns="http://www.w3.org/2000/svg" viewBox="0 0 352 222">
  <defs>
    
  </defs>
  <g>
    <path class="cls-1" d="M86.48,191.2c.28.2.66.37,1.14.53.48.16,1.02.23,1.63.23.72,0,1.29-.13,1.71-.38s.74-.63.96-1.13c.22-.5.36-1.12.43-1.85.07-.73.11-1.58.11-2.54v-7.62h1.9v7.62c0,1.14-.05,2.18-.16,3.12-.11.94-.34,1.74-.7,2.4-.36.66-.87,1.18-1.54,1.54-.67.37-1.57.55-2.71.55-1.27,0-2.35-.31-3.25-.93l.49-1.54Z"></path>
    <path class="cls-1" d="M100.73,193.65c-1.16,0-2.03-.39-2.62-1.16s-.89-1.93-.89-3.46v-6.61h1.86v6.25c0,2.25.78,3.38,2.34,3.38.76,0,1.47-.24,2.14-.73.67-.49,1.17-1.15,1.49-2v-6.91h1.86v8.75c0,.44.2.66.59.68v1.6c-.21.03-.38.05-.5.05-.12,0-.24,0-.35,0-.37,0-.67-.11-.92-.33-.25-.22-.38-.49-.39-.81l-.04-1.29c-.49.83-1.14,1.47-1.94,1.91-.8.44-1.68.66-2.64.66Z"></path>
    <path class="cls-1" d="M126.65,193.44h-1.86v-6.17c0-1.15-.19-2.01-.56-2.56-.37-.55-.93-.82-1.66-.82s-1.44.27-2.04.81c-.6.54-1.02,1.24-1.28,2.1v6.63h-1.86v-6.17c0-1.18-.18-2.04-.55-2.58-.37-.53-.92-.8-1.65-.8s-1.42.26-2.03.79c-.61.53-1.04,1.23-1.29,2.1v6.65h-1.86v-11.03h1.69v2.37c.45-.82,1.04-1.45,1.75-1.89.72-.44,1.53-.66,2.43-.66s1.66.25,2.21.75c.54.5.88,1.14,1,1.93.99-1.79,2.39-2.68,4.2-2.68.63,0,1.16.12,1.59.35.43.23.77.56,1.02.97.25.41.44.9.55,1.47.11.56.17,1.18.17,1.84v6.59Z"></path>
    <path class="cls-1" d="M135.48,193.65c-.92,0-1.72-.22-2.42-.68-.7-.45-1.25-1.02-1.66-1.71v6.68h-1.86v-15.53h1.65v2.07c.44-.68,1-1.22,1.7-1.64.7-.41,1.47-.62,2.31-.62.76,0,1.46.15,2.09.46.63.31,1.18.73,1.65,1.26.46.53.83,1.14,1.09,1.83.26.69.39,1.41.39,2.15,0,.79-.12,1.53-.36,2.23-.24.7-.58,1.3-1.01,1.82-.44.51-.96.92-1.56,1.22-.61.3-1.28.45-2.01.45ZM134.91,192.05c.55,0,1.05-.12,1.49-.35.44-.23.82-.54,1.14-.93.32-.39.56-.83.73-1.32.17-.49.25-1,.25-1.52,0-.55-.1-1.07-.3-1.57-.2-.5-.46-.94-.8-1.31-.34-.37-.74-.67-1.19-.89-.46-.22-.95-.33-1.49-.33-.34,0-.69.07-1.05.2-.36.13-.7.31-1.01.53-.32.22-.59.48-.82.78-.23.3-.38.62-.45.96v3.15c.15.37.35.71.59,1.03.24.32.51.59.82.82.31.23.64.42.99.55.35.13.72.2,1.1.2Z"></path>
    <path class="cls-1" d="M146.57,193.65c-.89,0-1.76-.14-2.62-.41-.86-.27-1.6-.67-2.22-1.19l.8-1.25c.65.49,1.3.86,1.94,1.11.65.25,1.33.37,2.05.37.8,0,1.44-.16,1.91-.47.47-.32.71-.76.71-1.34,0-.27-.06-.5-.19-.69-.13-.19-.32-.36-.57-.5-.25-.14-.58-.27-.97-.38-.39-.11-.85-.23-1.37-.36-.66-.17-1.23-.33-1.71-.49-.48-.16-.87-.34-1.18-.55-.31-.21-.53-.46-.68-.76-.14-.3-.21-.66-.21-1.1,0-.55.11-1.04.33-1.47.22-.43.52-.79.9-1.08.38-.29.83-.51,1.34-.66.51-.15,1.07-.22,1.66-.22.83,0,1.6.13,2.32.4.72.27,1.32.62,1.82,1.06l-.85,1.12c-.46-.41-.99-.72-1.56-.92-.58-.2-1.17-.31-1.77-.31-.68,0-1.25.14-1.72.43-.47.29-.71.75-.71,1.38,0,.25.05.46.14.63.09.17.24.32.45.44.21.13.48.24.81.34.33.1.73.2,1.19.32.73.17,1.37.34,1.91.52.54.18.99.38,1.35.62.36.24.63.52.8.84.18.33.26.72.26,1.18,0,1.03-.39,1.84-1.18,2.45-.79.61-1.85.91-3.19.91Z"></path>
    <path class="cls-1" d="M158.84,192.89c-.11.06-.26.12-.44.2-.18.08-.39.15-.62.23-.23.08-.49.14-.76.19-.27.05-.56.07-.86.07-.68,0-1.26-.19-1.75-.56-.49-.37-.74-.95-.74-1.74v-7.41h-1.5v-1.46h1.5v-3.67h1.86v3.67h2.47v1.46h-2.47v6.84c.03.41.16.7.4.89.24.18.52.27.85.27.37,0,.7-.06,1-.18.3-.12.51-.21.62-.29l.44,1.48Z"></path>
    <path class="cls-1" d="M163.4,193.65c-.52,0-1.01-.09-1.46-.26-.45-.18-.84-.42-1.17-.73-.33-.31-.59-.67-.78-1.09-.19-.42-.28-.87-.28-1.36s.11-.97.34-1.38c.22-.42.55-.77.96-1.07.41-.3.91-.53,1.48-.7.57-.17,1.19-.25,1.87-.25.53,0,1.08.05,1.63.15.55.1,1.04.23,1.46.4v-.89c0-.9-.25-1.61-.76-2.12-.51-.51-1.23-.77-2.15-.77-1.11,0-2.28.43-3.51,1.29l-.61-1.2c1.42-.96,2.85-1.44,4.29-1.44s2.58.39,3.39,1.16c.81.77,1.21,1.87,1.21,3.27v4.5c0,.44.2.66.59.68v1.6c-.2.03-.36.05-.49.06-.13.01-.26.02-.4.02-.37,0-.66-.11-.88-.33-.22-.22-.35-.48-.39-.79l-.04-.78c-.49.66-1.12,1.17-1.87,1.51-.75.35-1.56.52-2.42.52ZM163.89,192.26c.66,0,1.28-.12,1.85-.37.57-.25,1-.57,1.3-.98.27-.27.4-.54.4-.82v-1.63c-.9-.35-1.84-.53-2.81-.53s-1.69.2-2.27.59c-.58.39-.88.91-.88,1.54,0,.31.06.6.18.87.12.27.29.5.51.7.22.2.48.35.77.46.3.11.61.17.95.17Z"></path>
    <path class="cls-1" d="M178.11,184.04c-.93.03-1.75.27-2.46.72-.71.45-1.21,1.08-1.51,1.88v6.8h-1.86v-11.03h1.73v2.56c.38-.76.88-1.38,1.5-1.85.62-.47,1.28-.73,1.99-.79h.36c.1,0,.18,0,.25.02v1.69Z"></path>
    <path class="cls-1" d="M185.65,192.89c-.11.06-.26.12-.44.2-.18.08-.39.15-.62.23-.23.08-.49.14-.76.19-.27.05-.56.07-.86.07-.68,0-1.26-.19-1.75-.56-.49-.37-.74-.95-.74-1.74v-7.41h-1.5v-1.46h1.5v-3.67h1.86v3.67h2.47v1.46h-2.47v6.84c.03.41.16.7.4.89.24.18.52.27.85.27.37,0,.7-.06,1-.18.3-.12.51-.21.62-.29l.44,1.48Z"></path>
    <path class="cls-1" d="M193.27,193.44v-15h9.76v.97h-8.68v5.96h7.37v.93h-7.37v7.14h-1.08Z"></path>
    <path class="cls-1" d="M209.45,193.65c-.78,0-1.49-.15-2.15-.45-.66-.3-1.24-.72-1.72-1.25-.49-.53-.87-1.14-1.14-1.83-.27-.69-.41-1.43-.41-2.22s.14-1.5.41-2.19c.27-.68.65-1.28,1.13-1.8.48-.51,1.05-.92,1.7-1.21.65-.3,1.36-.44,2.12-.44s1.49.15,2.15.45c.66.3,1.23.71,1.71,1.23.48.51.85,1.11,1.12,1.79.27.68.4,1.4.4,2.17v.26c0,.1,0,.17-.02.2h-9.63c.04.63.19,1.22.44,1.76.25.54.57,1.01.96,1.4.39.4.83.7,1.34.93.51.23,1.05.34,1.63.34.38,0,.75-.05,1.12-.16.37-.11.71-.25,1.02-.43.32-.18.6-.4.84-.66.25-.26.44-.55.58-.86l.93.25c-.16.4-.38.76-.69,1.09-.3.33-.65.62-1.06.86-.4.24-.84.43-1.32.56-.48.13-.97.2-1.48.2ZM213.76,187.53c-.04-.65-.19-1.24-.43-1.77-.25-.53-.56-1-.95-1.38-.39-.39-.83-.69-1.34-.91-.51-.22-1.05-.33-1.63-.33s-1.12.11-1.63.33c-.51.22-.95.52-1.34.91-.39.39-.7.85-.93,1.39-.23.54-.37,1.13-.41,1.76h8.66Z"></path>
    <path class="cls-1" d="M222.3,183.41c-.99.03-1.85.32-2.59.88-.74.56-1.26,1.32-1.55,2.29v6.86h-1.06v-10.98h1.01v2.7c.38-.77.88-1.4,1.51-1.89.63-.49,1.3-.76,2.02-.83.14-.01.27-.02.38-.02h.27v.99Z"></path>
    <path class="cls-1" d="M229.2,192.91c-.06.03-.15.08-.28.16-.13.08-.3.15-.51.22-.2.07-.43.13-.69.19-.25.06-.53.08-.82.08s-.57-.04-.83-.13c-.26-.08-.49-.21-.69-.38-.2-.17-.35-.37-.46-.61-.11-.24-.17-.52-.17-.85v-8.28h-1.54v-.87h1.54v-3.76h1.06v3.76h2.56v.87h-2.56v8.03c0,.41.14.72.42.92.28.2.6.31.95.31.44,0,.81-.07,1.13-.22.32-.15.51-.24.58-.29l.32.84Z"></path>
    <path class="cls-1" d="M231.06,179.96v-1.94h1.06v1.94h-1.06ZM231.06,193.44v-10.98h1.06v10.98h-1.06Z"></path>
    <path class="cls-1" d="M235.52,178.02h1.08v13.25c0,.41.12.73.35.97.23.24.55.36.96.36.15,0,.34-.02.56-.05.22-.03.42-.09.6-.16l.21.84c-.24.1-.54.18-.89.24-.35.06-.65.1-.91.1-.59,0-1.07-.18-1.43-.54-.36-.36-.54-.84-.54-1.45v-13.56Z"></path>
    <path class="cls-1" d="M240.9,179.96v-1.94h1.06v1.94h-1.06ZM240.9,193.44v-10.98h1.06v10.98h-1.06Z"></path>
    <path class="cls-1" d="M250.18,192.91c-.06.03-.15.08-.28.16-.13.08-.3.15-.51.22-.2.07-.43.13-.69.19-.25.06-.53.08-.82.08s-.57-.04-.83-.13c-.26-.08-.49-.21-.69-.38-.2-.17-.35-.37-.46-.61-.11-.24-.17-.52-.17-.85v-8.28h-1.54v-.87h1.54v-3.76h1.06v3.76h2.56v.87h-2.56v8.03c0,.41.14.72.42.92.28.2.6.31.95.31.44,0,.81-.07,1.13-.22.32-.15.51-.24.58-.29l.32.84Z"></path>
    <path class="cls-1" d="M252.77,197.16c.07.01.18.02.32.02s.27,0,.39-.02c.12-.01.24-.05.35-.1.08-.04.16-.1.23-.18.07-.08.17-.23.3-.47.13-.24.29-.59.49-1.06.2-.46.46-1.1.8-1.9l-4.9-10.98h1.1l4.37,9.95,4.08-9.95h1.03l-6.02,14.45c-.15.4-.4.7-.75.92-.35.22-.81.33-1.4.33h-.18c-.06,0-.13,0-.2-.02v-.97Z"></path>
  </g>
  <path class="cls-1" d="M215.96,84.57c11.37,11.99,40.2,8.74,50.87-2.77,0,0,.24,2.5.24,2.5-9.01-6.57-20.26-9.62-31.36-9.34-36.76.86-57.12,37.43-58.69,70.81-.88-20.25,5.28-41.5,19.14-56.63,7.52-8.27,17.52-14.2,28.36-16.93,15.31-3.15,32.05-.26,44.57,9.36,0,0,1.54,1.15,1.54,1.15,0,0-1.3,1.35-1.3,1.35-11.76,12.14-42.36,14.44-53.37.48h0Z"></path>
  <path class="cls-1" d="M201.39,47.28c.08-12.33,8.77-24.15,21.01-27.06,6.87-1.7,14.49-.83,20.48,3.09,7.44,4.7,10.54,14.14,6.07,22.05-1.84,3.37-4.46,5.96-7.38,7.94,3.91-8.17,6.21-17.88-3.13-22.69-7.68-3.84-16.92-2.64-24.18,2.21-5.42,3.55-9.3,8.83-12.87,14.45h0Z"></path>
  <path class="cls-1" d="M155.41,89.85c31.38-3.65,63.9-15.38,85.61-38.92,0,0,3.05,9.74,3.05,9.74-22.19-4.19-44.34-11.34-66.65-5.31-5.6,1.58-10.48,5.1-14.91,9.05-6.51,6.03-14.42,16.64-8.06,25.31-.03-.01.97.13.96.13h0ZM155.41,89.85s-.98-.11-.98-.12c-6.45-8.7.87-19.65,6.58-26.74,4.06-4.75,8.8-9.51,14.64-12.36,3.41-1.53,7.19-3.1,10.79-4.08,19.54-6.03,40.94-2.04,60.1,2.65,0,0,10.19,2.41,10.19,2.41l-7.14,7.33c-24.65,24.68-61.63,26.56-94.18,30.91h0Z"></path>
  <path class="cls-1" d="M139.79,82.15c-13.36,16.55-48.44,14.34-57.49-5.83,0,0-.55-1.28-.55-1.28,0,0,1.16-.84,1.16-.84,17.02-12.94,40.52-10.07,57.7,1.02,7.92,5.67,14.43,13.09,19.96,21.02,9.88,14.49,17.14,31.76,16.46,49.53-1.02-24.95-21.6-59.25-44.06-70.4-15.21-7.49-33.81-8.55-48.01,1.7,0,0,.6-2.12.6-2.12,8.13,18.62,40.74,21.22,54.24,7.2h0Z"></path>
</svg>