<svg id="a" xmlns="http://www.w3.org/2000/svg" viewBox="0 0 300 180" fill="currentColor"><path d="M110,63.39l-.23,4.75c.3,2.7.32,5.41.71,8.11.75,5.23,2.39,10.36,4.04,15.35l5.39-20.83,10.36-.09,5.08,20.92c.07.07.27-.13.33-.22.51-.8,1.95-6.5,2.3-7.84,1.67-6.54,2.67-13.38,2-20.14h12.78c.19,6.96-.26,13.91-1.91,20.67-1.9,7.77-5.49,17.54-8.44,25.05-.31.78-.32,1.55-1.2,1.66-1.98.25-7.95.23-9.94,0-.24-.03-.48,0-.66-.23l-5.95-21.38-6.16,21.38-10.27.11c-4.06-12.16-9.73-24.06-10.79-37.02-.28-3.4-.22-6.83-.22-10.24h12.78Z"></path><path d="M212.38,63.39l14.66,27.76c.08.06.44-.29.44-.33v-27.43h12.12v47.14h-14.11l-14.77-25.55v25.55h-12.34v-47.14h14Z"></path><path d="M94.13,78.81h-13c-.25,0,.6-3.42-1.25-4.59-1.67-1.06-8.12-.89-10.04-.2-2.44.88-2.35,6.01,0,6.72,10.8,2.08,24.75-2.26,25.64,12.93.4,6.88-.33,13.87-7.73,16.3-5.74,1.89-21.05,1.77-26.72-.38-6.46-2.45-6.71-8.92-6.56-14.92h13c.25,0-.57,3.42,1.02,4.82.37.32,1.04.6,1.53.67,2.38.34,7.05.33,9.44,0s2.91-3.52,2.5-5.55c-.23-1.16-1.27-1.62-2.32-1.87-3.39-.81-8.58-.49-12.29-.94-8.78-1.06-12.46-3.57-12.91-12.88-.29-6.02.64-12.14,6.84-14.55,5.36-2.07,22.68-2.26,27.7.51,2.84,1.57,5.14,5.98,5.14,9.18v4.74Z"></path><path d="M194.17,104.5c-.42-3.4-1.37-7.01-2.24-10.32-2.93-11.17-7.11-22.02-10.63-33-4.39,3.32-10.32,4.19-15.4,1.95-.95-.42-1.85-1.22-2.64-1.55-.24-.1-.23-.32-.47.04-3.49,11.03-7.73,22-10.63,33.22-1.16,4.51-2.48,10.05-2.5,14.69,0,.35-.04,1.09.35,1.22h12.67c.24,0,.21-4.3.25-4.71.02-.21.16-1.19.2-1.23.2-.19,4.77.62,5.6.66,4.03.22,8.05-.14,12.02-.67l.44,5.95h13.12c.11,0,.36-.36.34-.55-.32-1.89-.25-3.79-.48-5.7ZM165.33,94.44c1.24-5.19,2.47-10.81,4.34-15.8,1.37-3.67,2.34-5.74,4.25-.83,2.02,5.18,3.18,11.24,4.62,16.63-4.36.89-8.85.89-13.21,0Z"></path><path d="M170.34,41.85c12.93-1.86,12.62,17.92.04,15.93-8.77-1.39-8.48-14.71-.04-15.93Z"></path><path d="M160,116.29l5.11,13.18.49-.28,5.05-12.91c.51,0,2.04-.21,2.3.18.74,5.79,1.7,11.56,1.42,17.42h-1.55c0-5.03-.59-10.01-1.21-14.98l-.33-.22-4.87,12.65c-.4.55-1.77.55-2.17,0l-4.98-12.65c-.16,0-.28.62-.31.79-.72,4.76-.9,9.6-1.12,14.41h-1.55c-.04-5.6.42-11.5,1.38-17.02.19-1.08,1.42-.5,2.33-.56Z"></path><path d="M118.81,130.8v-14.54h1.76v17.62c0,.11-1.89.07-2.09-.22l-10.25-14.32v14.54h-1.76v-17.62c0-.11,1.89-.07,2.09.22l9.72,13.86.53.46Z"></path><path d="M73.85,129.58c-.55,4.09-5.05,4.85-8.46,4.49-4.13-.44-5.8-2.94-6.1-6.9-.53-7.01.62-11.69,8.72-11.14,4.3.29,6.64,2.31,6.05,6.84h-1.55c.29-3.49-1.36-5.06-4.74-5.28-2.62-.17-5.45.33-6.38,3.09-.79,2.35-.73,7.97.77,10.02,1.84,2.52,8.07,2.66,9.52-.18.25-.48.85-3.02.29-3.02h-5.84v-1.54h7.71c-.11,1.15.15,2.52,0,3.63Z"></path><path d="M132.78,117.65c2.53-2.43,10.24-2.3,12.36.82,1.84,2.71,1.67,10.5-.22,13.19-2.24,3.18-9.85,3.33-12.31.44-2.38-2.81-2.56-11.83.17-14.45ZM137.28,117.64c-2.04.23-3.56.99-4.25,3.03-.81,2.41-.78,8.11.87,10.13,1.85,2.26,7.2,2.39,9.16.34s2.12-9.54.53-11.78c-1.26-1.76-4.35-1.93-6.31-1.71Z"></path><path d="M234.97,122.86h-1.76c1.72-5.36-4.16-6.1-7.94-4.96s-2.9,6.81-.05,7.33c2.55.46,8.49-.8,9.22,2.68,1.19,5.66-3.43,6.54-7.94,6.18-1.1-.09-5.33-.92-4.93-2.48.05-.2.6-.77.77-.8.31-.05.84.69,1.25.91,2.37,1.26,9.34,1.74,9.39-2.16.03-2.62-2.22-2.58-4.28-2.73-3.03-.22-6.14.75-7.28-3.08-1.88-6.35,2.8-8.1,8.16-7.71,4.64.34,6.15,2.15,5.4,6.82Z"></path><polygon points="96.55 116.26 96.55 118.02 86.19 118.02 86.19 125.07 93.91 125.07 93.91 126.61 86.19 126.61 86.19 132.12 96.55 132.12 96.55 133.88 84.43 133.88 84.43 116.26 96.55 116.26"></polygon><path d="M212.05,122.87h-1.76c1.68-5.74-7.82-6.8-10.23-3.51-1.65,2.24-1.5,9.07.09,11.33,1.7,2.4,6.88,2.42,9.02.64.49-.41,1.03-1.91,2.01-.86,1.12,1.2-2.06,3.04-3.08,3.32-5.45,1.5-10.3-.38-10.81-6.4-.61-7.31.68-12.11,9.12-11.31,4.09.39,6.13,2.63,5.65,6.8Z"></path><rect x="185.16" y="116.26" width="1.76" height="17.62"></rect></svg>