<?xml version="1.0" encoding="UTF-8"?><svg id="Layer_1" xmlns="http://www.w3.org/2000/svg" viewBox="0 0 1000 241"><defs><style>.cls-1{fill-rule:evenodd;}.cls-1,.cls-2,.cls-3{stroke-width:0px;}.cls-1,.cls-3{fill:#00b3ab;}.cls-2{fill:#385172;}</style></defs><path class="cls-2" d="m23.77,68.66c1.63.66,3.08,1.6,4.35,2.82,1.27,1.22,2.28,2.62,3.05,4.2.76,1.58,1.14,3.28,1.14,5.11v26.98c0,5.08-1.27,9.24-3.81,12.49-2.54,3.25-6.4,4.88-11.58,4.88h-6.25v46.79H3.05c-1.32,0-2.16-.28-2.51-.84-.36-.56-.53-1.04-.53-1.44v-101.96h18.59c1.83,0,3.55.33,5.18.99Zm-1.82,14.25c-.21-1.43-.84-2.64-1.91-3.66-1.06-1.02-2.31-1.52-3.73-1.52h-5.64v36.73h5.64c1.42,0,2.67-.48,3.73-1.45,1.07-.96,1.71-2.16,1.91-3.58v-26.52Z"></path><path class="cls-2" d="m111.13,171.91h-10.67v-38.1c0-2.64-.56-4.42-1.68-5.33-1.12-.92-2.43-1.37-3.96-1.37h-5.64v44.81h-10.67v-104.24h19.42c1.82,0,3.54.33,5.16.99s3.01,1.58,4.17,2.74c1.16,1.17,2.09,2.54,2.81,4.12.71,1.57,1.06,3.28,1.06,5.1v32.31c0,2.03-.23,3.66-.68,4.88-.45,1.21-.93,2.13-1.43,2.74-.59.71-1.25,1.21-1.95,1.52.7.4,1.36,1.06,1.95,1.98.5.81.98,1.85,1.43,3.12.45,1.28.68,2.88.68,4.81v39.93Zm-12.35-56c1.12-.86,1.68-2.47,1.68-4.81v-27.43c0-2.03-.56-3.43-1.68-4.2-1.12-.76-2.43-1.14-3.96-1.14h-5.64v38.86h5.64c1.52,0,2.84-.43,3.96-1.29Z"></path><path class="cls-2" d="m189.26,71.18c2.54,2.54,3.81,5.59,3.81,9.15v79.25c0,1.82-.33,3.51-.99,5.03-.66,1.52-1.58,2.87-2.74,4.04s-2.54,2.11-4.12,2.82c-1.57.71-3.22,1.12-4.95,1.22h-8.23c-3.66,0-6.78-1.27-9.37-3.81-2.59-2.54-3.89-5.64-3.89-9.3v-79.25c0-3.66,1.29-6.78,3.89-9.38,2.59-2.59,5.71-3.89,9.37-3.89h8.23c3.45.21,6.45,1.58,8.99,4.12Zm-8.53,90.53c1.11-1.12,1.67-2.49,1.67-4.12v-75.45c0-1.62-.56-2.99-1.67-4.11-1.13-1.12-2.49-1.68-4.12-1.68h-1.68c-1.52.1-2.82.69-3.89,1.75-1.06,1.07-1.59,2.42-1.59,4.04v75.45c0,1.63.53,2.97,1.59,4.04,1.07,1.07,2.42,1.65,4.05,1.75h1.52c1.63,0,2.99-.56,4.12-1.67Z"></path><path class="cls-2" d="m276.56,67.67c-.61,1.34-1.29,2.86-2.05,4.56-.76,1.71-1.25,2.76-1.45,3.17-.3.72-.89,1.39-1.75,2.01-.86.62-2.16.93-3.89.93h-8.38c-.81,0-1.44.25-1.9.76-.45.51-.68,1.12-.68,1.82v90.99h-8.23c-1.22,0-2.01-.28-2.36-.83-.36-.56-.58-1.05-.68-1.45v-91.29h-14.94v-7.42c0-.93.3-1.7.91-2.32s1.37-.93,2.28-.93h43.13Z"></path><path class="cls-2" d="m351.5,71.18c2.54,2.54,3.81,5.59,3.81,9.15v79.25c0,1.82-.33,3.51-.99,5.03-.66,1.52-1.58,2.87-2.74,4.04s-2.54,2.11-4.12,2.82c-1.57.71-3.22,1.12-4.95,1.22h-8.23c-3.66,0-6.78-1.27-9.37-3.81-2.59-2.54-3.89-5.64-3.89-9.3v-79.25c0-3.66,1.29-6.78,3.89-9.38,2.59-2.59,5.71-3.89,9.37-3.89h8.23c3.45.21,6.45,1.58,8.99,4.12Zm-8.53,90.53c1.11-1.12,1.67-2.49,1.67-4.12v-75.45c0-1.62-.56-2.99-1.67-4.11-1.13-1.12-2.49-1.68-4.12-1.68h-1.68c-1.52.1-2.82.69-3.89,1.75-1.06,1.07-1.59,2.42-1.59,4.04v75.45c0,1.63.53,2.97,1.59,4.04,1.07,1.07,2.42,1.65,4.05,1.75h1.52c1.63,0,2.99-.56,4.12-1.67Z"></path><path class="cls-2" d="m681.31,171.91h-11.73l-9.3-71.93-9.45,71.93h-11.73l15.85-104.24h5.64c2.33,0,3.83.59,4.5,1.75.66,1.17,1.09,2.47,1.29,3.89l14.94,98.61Z"></path><path class="cls-2" d="m722.47,171.91l16.47-55.17-14.02-49.07h8.38c.2,0,.81.15,1.82.46,1.02.3,1.78,1.32,2.28,3.05l7.62,27.89,7.16-27.89c.51-1.73,1.27-2.74,2.29-3.05,1.01-.31,1.62-.46,1.82-.46h8.53l-13.56,49.22,15.55,55.02h-11.58l-9.76-37.79-10.67,37.79h-12.35Z"></path><path class="cls-2" d="m823.09,69.12c.61.96.91,1.85.91,2.67v100.13h-7.62c-1.21,0-2.01-.25-2.36-.76-.36-.51-.59-1.02-.69-1.52v-101.96h6.4c1.63,0,2.74.48,3.36,1.45Z"></path><path class="cls-2" d="m902.1,71.18c2.54,2.54,3.81,5.59,3.81,9.15v79.25c0,1.82-.33,3.51-.99,5.03-.66,1.52-1.58,2.87-2.74,4.04-1.17,1.17-2.54,2.11-4.12,2.82-1.57.71-3.22,1.12-4.95,1.22h-8.23c-3.66,0-6.78-1.27-9.37-3.81-2.59-2.54-3.89-5.64-3.89-9.3v-79.25c0-3.66,1.29-6.78,3.89-9.38,2.59-2.59,5.71-3.89,9.37-3.89h8.23c3.45.21,6.45,1.58,8.99,4.12Zm-8.53,90.53c1.11-1.12,1.67-2.49,1.67-4.12v-75.45c0-1.62-.56-2.99-1.67-4.11-1.13-1.12-2.49-1.68-4.12-1.68h-1.68c-1.52.1-2.82.69-3.89,1.75-1.06,1.07-1.59,2.42-1.59,4.04v75.45c0,1.63.53,2.97,1.59,4.04,1.07,1.07,2.42,1.65,4.05,1.75h1.52c1.63,0,2.99-.56,4.12-1.67Z"></path><path class="cls-2" d="m1000,67.67v104.24h-10.67v-53.8l-8.08,35.66h-3.2c-1.53,0-2.8-.33-3.82-.98-1.02-.67-1.8-1.45-2.36-2.36-.56-.92-.96-1.83-1.21-2.74-.25-.91-.44-1.68-.54-2.28l-6.24-27.28v53.8h-10.67v-104.24h6.55c.81,0,1.52.15,2.13.46.51.21,1.02.59,1.52,1.14s.86,1.29,1.07,2.2l12.34,59.9,11.73-59.9c.1-.3.44-1.01.99-2.13.56-1.11,1.81-1.67,3.74-1.67h6.71Z"></path><path class="cls-1" d="m499.48,35.24c5.65,0,10.24,4.59,10.24,10.24,0,5.65-4.59,10.24-10.24,10.24-5.66,0-10.24-4.59-10.24-10.24,0-5.66,4.59-10.24,10.24-10.24Z"></path><path class="cls-1" d="m544.59.42c-5.66,0-10.24,4.59-10.24,10.24,0,5.66,4.59,10.24,10.24,10.24,5.65,0,10.24-4.59,10.24-10.24,0-5.66-4.59-10.24-10.24-10.24Z"></path><path class="cls-1" d="m523.42,18.68c-5.66,0-10.24,4.59-10.24,10.24,0,5.66,4.59,10.24,10.24,10.24,5.65,0,10.24-4.59,10.24-10.24,0-5.65-4.59-10.24-10.24-10.24Z"></path><path class="cls-1" d="m490,61.17h-2.23c-1.1-4.47-5.11-7.81-9.92-7.81-5.66,0-10.24,4.59-10.24,10.24s4.59,10.24,10.24,10.24c4.82,0,8.83-3.34,9.92-7.81h2.23c1.33,0,2.43-1.09,2.43-2.43s-1.09-2.43-2.43-2.43Z"></path><path class="cls-1" d="m490,79.99h-22.92c-1.1-4.48-5.11-7.81-9.92-7.81-5.66,0-10.24,4.59-10.24,10.24s4.59,10.24,10.24,10.24c4.81,0,8.82-3.34,9.92-7.81h22.92c1.33,0,2.43-1.09,2.43-2.43s-1.09-2.43-2.43-2.43Z"></path><path class="cls-1" d="m490,103.68h-37.44c-1.1-4.47-5.11-7.81-9.92-7.81-5.66,0-10.24,4.59-10.24,10.24s4.59,10.24,10.24,10.24c4.81,0,8.82-3.33,9.92-7.81h37.44c1.33,0,2.43-1.1,2.43-2.44s-1.09-2.43-2.43-2.43Z"></path><path class="cls-1" d="m490,131.19h-37.44c-1.1-4.48-5.11-7.81-9.92-7.81-5.66,0-10.24,4.59-10.24,10.24s4.59,10.24,10.24,10.24c4.81,0,8.82-3.34,9.92-7.81h37.44c1.34,0,2.43-1.09,2.43-2.43s-1.1-2.43-2.43-2.43Z"></path><path class="cls-1" d="m490,154.88h-22.92c-1.1-4.48-5.11-7.81-9.92-7.81-5.66,0-10.24,4.59-10.24,10.24s4.59,10.24,10.24,10.24c4.81,0,8.82-3.34,9.92-7.81h22.92c1.34,0,2.43-1.09,2.43-2.43s-1.1-2.43-2.43-2.43Z"></path><path class="cls-1" d="m490,173.7h-2.23c-1.1-4.47-5.11-7.81-9.92-7.81-5.66,0-10.24,4.59-10.24,10.24s4.59,10.24,10.24,10.24c4.81,0,8.82-3.33,9.92-7.81h2.23c1.34,0,2.43-1.1,2.43-2.43s-1.1-2.43-2.43-2.43Z"></path><path class="cls-1" d="m523.42,201.83c-5.66,0-10.24,4.59-10.24,10.24,0,5.65,4.59,10.24,10.24,10.24,5.65,0,10.24-4.59,10.24-10.24,0-5.65-4.59-10.24-10.24-10.24Z"></path><path class="cls-1" d="m544.59,220.09c-5.66,0-10.24,4.59-10.24,10.24,0,5.66,4.59,10.24,10.24,10.24,5.65,0,10.24-4.59,10.24-10.24,0-5.66-4.59-10.24-10.24-10.24Z"></path><path class="cls-1" d="m455.41.42c5.65,0,10.24,4.59,10.24,10.24,0,5.66-4.59,10.24-10.24,10.24-5.66,0-10.24-4.59-10.24-10.24,0-5.66,4.59-10.24,10.24-10.24Z"></path><path class="cls-1" d="m476.59,18.68c5.65,0,10.24,4.59,10.24,10.24,0,5.66-4.59,10.24-10.24,10.24-5.66,0-10.24-4.59-10.24-10.24,0-5.66,4.59-10.24,10.24-10.24Z"></path><path class="cls-1" d="m522.15,53.36c-4.81,0-8.82,3.33-9.92,7.81h-3.44c-1.34,0-2.43,1.09-2.43,2.43s1.1,2.43,2.43,2.43h3.44c1.1,4.47,5.11,7.81,9.92,7.81,5.66,0,10.24-4.59,10.24-10.24s-4.59-10.24-10.24-10.24Z"></path><path class="cls-1" d="m542.84,72.18c-4.81,0-8.82,3.33-9.92,7.81h-24.13c-1.34,0-2.43,1.1-2.43,2.43s1.1,2.43,2.43,2.43h24.13c1.1,4.47,5.11,7.81,9.92,7.81,5.65,0,10.24-4.59,10.24-10.24s-4.59-10.24-10.24-10.24Z"></path><path class="cls-1" d="m557.36,95.87c-4.81,0-8.82,3.34-9.92,7.81h-38.65c-1.34,0-2.43,1.1-2.43,2.43s1.1,2.44,2.43,2.44h38.65c1.1,4.47,5.11,7.81,9.92,7.81,5.66,0,10.24-4.59,10.24-10.24s-4.59-10.24-10.24-10.24Z"></path><path class="cls-1" d="m557.36,123.38c-4.81,0-8.82,3.34-9.92,7.81h-38.65c-1.34,0-2.43,1.09-2.43,2.43s1.09,2.43,2.43,2.43h38.65c1.1,4.47,5.11,7.81,9.92,7.81,5.65,0,10.24-4.59,10.24-10.24s-4.59-10.24-10.24-10.24Z"></path><path class="cls-1" d="m542.84,147.07c-4.81,0-8.83,3.34-9.92,7.81h-24.13c-1.34,0-2.43,1.09-2.43,2.43s1.09,2.43,2.43,2.43h24.13c1.1,4.48,5.11,7.81,9.92,7.81,5.65,0,10.24-4.59,10.24-10.24s-4.59-10.24-10.24-10.24Z"></path><path class="cls-1" d="m522.15,165.89c-4.81,0-8.82,3.33-9.92,7.81h-3.44c-1.34,0-2.43,1.1-2.43,2.43s1.09,2.43,2.43,2.43h3.44c1.1,4.47,5.11,7.81,9.92,7.81,5.66,0,10.24-4.59,10.24-10.24s-4.59-10.24-10.24-10.24Z"></path><circle class="cls-3" cx="476.59" cy="212.07" r="10.24"></circle><circle class="cls-3" cx="455.41" cy="230.33" r="10.24"></circle><path class="cls-1" d="m500.52,185.7c-5.65,0-10.24,4.59-10.24,10.25,0,5.65,4.59,10.24,10.24,10.24,5.66,0,10.24-4.59,10.24-10.24,0-5.66-4.59-10.25-10.24-10.25Z"></path><path class="cls-1" d="m499.48,109.57c1.9,0,3.46-1.55,3.46-3.46,0-1.9-1.55-3.45-3.46-3.45-1.9,0-3.46,1.55-3.46,3.45,0,1.91,1.55,3.46,3.46,3.46Z"></path><path class="cls-1" d="m499.48,137.08c1.9,0,3.46-1.55,3.46-3.46,0-1.9-1.55-3.46-3.46-3.46-1.9,0-3.46,1.55-3.46,3.46,0,1.9,1.55,3.46,3.46,3.46Z"></path><path class="cls-1" d="m499.48,85.88c1.9,0,3.46-1.55,3.46-3.46,0-1.9-1.55-3.46-3.46-3.46-1.9,0-3.46,1.55-3.46,3.46s1.55,3.46,3.46,3.46Z"></path><path class="cls-1" d="m499.48,160.77c1.9,0,3.46-1.55,3.46-3.46,0-1.91-1.55-3.46-3.46-3.46-1.9,0-3.46,1.55-3.46,3.46,0,1.9,1.55,3.46,3.46,3.46Z"></path><path class="cls-1" d="m499.48,67.06c1.9,0,3.46-1.55,3.46-3.46,0-1.91-1.55-3.46-3.46-3.46-1.9,0-3.46,1.55-3.46,3.46,0,1.9,1.55,3.46,3.46,3.46Z"></path><path class="cls-1" d="m499.48,179.59c1.9,0,3.46-1.55,3.46-3.46,0-1.91-1.55-3.46-3.46-3.46-1.9,0-3.46,1.55-3.46,3.46,0,1.91,1.55,3.46,3.46,3.46Z"></path></svg>