<svg id="a" xmlns="http://www.w3.org/2000/svg" viewBox="0 0 300 180" fill="currentColor"><path d="M52.29,111.55c-6.9-2.58-12.58-7.21-17.45-11.88-4.77-4.74-8.72-9.52-9.76-14.09-.95-4.6,2.69-7.17,7.89-7.87,5.29-.92,12.14.03,19.74-2.61,7.61-2.31,14.6-7.85,21.5-8.09,3.31-.15,6.31,1.06,8.17,3.97,1.87,2.85,2.6,7.42,1.5,12.59-2.15,10.68-8.43,20.53-13.57,25.11-5.35,4.79-11.2,5.36-18.02,2.87h0ZM52.94,76.49c-6.17,1.75-11.68,2.19-15.63,3.51-3.93,1.25-6.31,3.38-5.75,6.9.56,3.47,3.42,7.24,7.13,10.75,3.77,3.47,8.38,6.68,13.65,8.13,5.33,1.35,9.95.5,14.29-3.33,4.22-3.68,8.17-10.35,9.42-17.34,1.3-7.09-1.79-11.24-6.34-11.87-4.61-.85-10.68,1.81-16.76,3.25h0Z"></path><path d="M90.51,105.82v-1.8l11.27-29.76h5.32l11.27,29.76v1.8h-5.32l-2.8-7.8h-11.9l-2.84,7.8h-5.01,0ZM99.98,93.51h8.66l-4.28-12.04-4.38,12.04Z"></path><path d="M127.94,106.36c-1.74,0-3.23-.37-4.46-1.1-1.23-.74-2.18-1.73-2.84-2.98-.66-1.25-.99-2.76-.99-4.53v-7.3c0-1.77.33-3.28.99-4.53.66-1.25,1.62-2.24,2.89-2.98,1.26-.74,2.8-1.1,4.6-1.1,1.11,0,2.28.22,3.5.65,1.22.44,2.25,1.17,3.09,2.19v-10.41h4.96v31.56h-2.89l-1.85-2.61c-.75.9-1.72,1.65-2.91,2.26-1.19.6-2.55.9-4.08.9h0ZM129.02,101.85c.84,0,1.73-.22,2.66-.65.93-.44,1.94-1.23,3.02-2.37v-9.47c-1.89-2.01-3.8-3.02-5.73-3.02-.87,0-1.67.23-2.41.7-.74.47-1.25,1.05-1.53,1.76-.29.71-.43,1.38-.43,2.01v6.59c0,.63.14,1.3.43,2.01.28.71.81,1.29,1.56,1.76s1.56.7,2.44.7Z"></path><path d="M149.95,105.82l-8.34-21.1v-2.34h4.6l6.18,16.69,5.91-16.69h4.51v2.34l-8.34,21.1h-4.51Z"></path><path d="M171.01,106.36c-1.35,0-2.65-.26-3.9-.77-1.25-.51-2.22-1.31-2.91-2.41-.69-1.1-1.04-2.34-1.04-3.72,0-2.43.82-4.3,2.46-5.59,1.64-1.29,4.05-1.94,7.24-1.94h5.14v-1.85c0-1.17-.38-2.09-1.13-2.75-.75-.66-1.85-.99-3.29-.99-.69,0-1.39.11-2.1.32-.71.21-1.27.59-1.69,1.13-.42.54-.63,1.17-.63,1.89h-4.83c0-1.71.39-3.16,1.17-4.33.78-1.17,1.85-2.05,3.2-2.64,1.35-.59,2.98-.88,4.87-.88,3.04,0,5.36.73,6.97,2.19,1.61,1.46,2.41,3.38,2.41,5.75v16.05h-2.89l-1.9-2.61c-.75.9-1.75,1.65-3,2.26-1.25.6-2.64.9-4.17.9h0ZM172,101.85c2.32,0,4.31-.89,6-2.66v-3.47h-5.14c-1.65,0-2.86.31-3.61.92-.75.62-1.13,1.37-1.13,2.28,0,.96.35,1.69,1.04,2.19.69.49,1.64.75,2.84.75h0Z"></path><path d="M185.57,105.82v-23.45h2.89l1.85,2.62c.75-.9,1.71-1.65,2.89-2.26,1.17-.6,2.53-.9,4.06-.9,2.43,0,4.4.79,5.89,2.37,1.49,1.58,2.23,3.75,2.23,6.52v15.11h-4.96v-14.66c0-1.17-.24-2.14-.72-2.91-.48-.77-1.05-1.28-1.71-1.53-.66-.26-1.28-.38-1.85-.38-.87,0-1.8.25-2.8.75-.99.49-1.93,1.25-2.8,2.28v16.46h-4.96Z"></path><path d="M220.7,106.5c-3.91,0-6.93-1-9.06-3-2.14-2-3.2-4.79-3.2-8.37v-10.19c0-3.58,1.07-6.37,3.2-8.37,2.13-2,5.15-3,9.06-3,1.56,0,3.04.22,4.44.65,1.4.44,2.64,1.1,3.72,2.01,1.08.9,1.93,2.05,2.55,3.45.62,1.4.92,3,.92,4.8v.45h-5.41v-.45c0-1.11-.26-2.12-.76-3.02-.51-.9-1.28-1.62-2.3-2.14-1.02-.53-2.09-.79-3.2-.79-2.26,0-3.95.53-5.1,1.58-1.14,1.05-1.71,2.54-1.71,4.46v10.91c0,1.92.57,3.41,1.71,4.46,1.14,1.05,2.84,1.58,5.1,1.58.66,0,1.48-.16,2.46-.47.98-.32,1.78-.85,2.41-1.6.63-.75,1.02-1.47,1.17-2.14s.23-1.25.23-1.74v-.45h5.41v.45c0,1.35-.21,2.7-.63,4.04-.42,1.34-1.11,2.51-2.07,3.52-.96,1.01-2.2,1.82-3.7,2.43-1.5.62-3.25.92-5.23.92h0Z"></path><path d="M245.05,106.36c-3.07,0-5.5-.77-7.3-2.3-1.8-1.53-2.71-3.64-2.71-6.31v-7.21c0-2.65.91-4.76,2.73-6.33,1.82-1.58,4.25-2.37,7.28-2.37s5.29.77,7.04,2.3c1.74,1.53,2.62,3.64,2.62,6.31v5.28h-14.7v1.94c0,1.23.44,2.24,1.31,3.02.87.78,2.12,1.17,3.74,1.17,1.32,0,2.38-.28,3.16-.83.78-.55,1.28-1.31,1.49-2.28h4.96c-.24,2.38-1.19,4.24-2.86,5.59-1.67,1.35-3.92,2.03-6.74,2.03h0ZM240,91.93h9.74v-1.49c0-1.23-.43-2.22-1.29-2.98-.86-.75-2.05-1.13-3.58-1.13s-2.73.38-3.58,1.13c-.86.75-1.29,1.74-1.29,2.98v1.49Z"></path><path d="M257.41,105.82v-31.56h4.96v31.56h-4.96Z"></path><path d="M266.11,105.82v-31.56h4.96v31.56h-4.96Z"></path></svg>